<svg xmlns="http://www.w3.org/2000/svg" viewBox="0 0 490 216" fill="none">
  <!-- Q Logo Icon (Shifted x by -33 to align with padding) -->
  <path fill="#000000" d="
    M 86 180
    A 65.9 65.9 0 1 1 122 151.5
    L 110 141
    A 49.2 49.2 0 1 0 75 166
    Z
  "/>
  <path fill="#000000" d="M 64 134 L 85 134 L 132 183 L 110.5 182.5 Z"/>

  <!-- O -->
  <path fill="#000000" fill-rule="evenodd" clip-rule="evenodd" d="
    M 207.5 70 
    A 37.5 37.5 0 1 0 207.5 145 
    A 37.5 37.5 0 1 0 207.5 70 
    Z 
    M 207.5 86 
    A 21.5 21.5 0 1 1 207.5 129 
    A 21.5 21.5 0 1 1 207.5 86 
    Z
  "/>

  <!-- F -->
  <path fill="#000000" d="M 242 70 H 292 V 86 H 258 V 99.5 H 284 V 115.5 H 258 V 145 H 242 Z"/>

  <!-- E -->
  <path fill="#000000" d="M 289 70 H 341 V 86 H 305 V 99.5 H 333 V 115.5 H 305 V 129 H 341 V 145 H 289 Z"/>

  <!-- N -->
  <g fill="#000000">
    <rect x="338" y="70" width="16" height="75" />
    <rect x="382" y="70" width="16" height="75" />
    <polygon points="354,70 370,70 398,145 382,145" />
  </g>

  <!-- O -->
  <path fill="#000000" fill-rule="evenodd" clip-rule="evenodd" d="
    M 432.5 70 
    A 37.5 37.5 0 1 0 432.5 145 
    A 37.5 37.5 0 1 0 432.5 70 
    Z 
    M 432.5 86 
    A 21.5 21.5 0 1 1 432.5 129 
    A 21.5 21.5 0 1 1 432.5 86 
    Z
  "/>
</svg>
