<svg xmlns="http://www.w3.org/2000/svg" viewBox="0 0 784 132">
  <g fill="#000000">
    <path d="M 84.00 129.00 A 65.9 65.9 0 1 1 120.00 100.50 L 108.00 90.00 A 49.2 49.2 0 1 0 73.00 115.00 Z"/>
    <path d="M 62.00 83.00 L 83.00 83.00 L 130.00 132.00 L 108.50 131.50 Z"/>
    <g transform="translate(150.00,0)"><path d="M 131.98 64.38 L 131.92 62.76 L 131.82 61.14 L 131.68 59.53 L 131.50 57.92 L 131.29 56.32 L 131.03 54.72 L 130.73 53.12 L 130.40 51.54 L 130.02 49.96 L 129.61 48.40 L 129.16 46.84 L 128.67 45.30 L 128.14 43.77 L 127.58 42.25 L 126.98 40.74 L 126.34 39.25 L 125.66 37.78 L 124.95 36.33 L 124.21 34.89 L 123.43 33.47 L 122.61 32.07 L 121.76 30.69 L 120.88 29.33 L 119.96 28.00 L 119.01 26.68 L 118.03 25.39 L 117.02 24.13 L 115.98 22.89 L 114.90 21.68 L 113.80 20.49 L 112.67 19.33 L 111.51 18.20 L 110.32 17.10 L 109.11 16.02 L 107.87 14.98 L 106.61 13.97 L 105.32 12.99 L 104.00 12.04 L 102.67 11.12 L 101.31 10.24 L 99.93 9.39 L 98.53 8.57 L 97.11 7.79 L 95.67 7.05 L 94.22 6.34 L 92.75 5.66 L 91.26 5.02 L 89.75 4.42 L 88.23 3.86 L 86.70 3.33 L 85.16 2.84 L 83.60 2.39 L 82.04 1.98 L 80.46 1.60 L 78.88 1.27 L 77.28 0.97 L 75.68 0.71 L 74.08 0.50 L 72.47 0.32 L 70.86 0.18 L 69.24 0.08 L 67.62 0.02 L 66.00 0.00 L 64.38 0.02 L 62.76 0.08 L 61.14 0.18 L 59.53 0.32 L 57.92 0.50 L 56.32 0.71 L 54.72 0.97 L 53.12 1.27 L 51.54 1.60 L 49.96 1.98 L 48.40 2.39 L 46.84 2.84 L 45.30 3.33 L 43.77 3.86 L 42.25 4.42 L 40.74 5.02 L 39.25 5.66 L 37.78 6.34 L 36.33 7.05 L 34.89 7.79 L 33.47 8.57 L 32.07 9.39 L 30.69 10.24 L 29.33 11.12 L 28.00 12.04 L 26.68 12.99 L 25.39 13.97 L 24.13 14.98 L 22.89 16.02 L 21.68 17.10 L 20.49 18.20 L 19.33 19.33 L 18.20 20.49 L 17.10 21.68 L 16.02 22.89 L 14.98 24.13 L 13.97 25.39 L 12.99 26.68 L 12.04 28.00 L 11.12 29.33 L 10.24 30.69 L 9.39 32.07 L 8.57 33.47 L 7.79 34.89 L 7.05 36.33 L 6.34 37.78 L 5.66 39.25 L 5.02 40.74 L 4.42 42.25 L 3.86 43.77 L 3.33 45.30 L 2.84 46.84 L 2.39 48.40 L 1.98 49.96 L 1.60 51.54 L 1.27 53.12 L 0.97 54.72 L 0.71 56.32 L 0.50 57.92 L 0.32 59.53 L 0.18 61.14 L 0.08 62.76 L 0.02 64.38 L 0.00 66.00 L 0.02 67.62 L 0.08 69.24 L 0.18 70.86 L 0.32 72.47 L 0.50 74.08 L 0.71 75.68 L 0.97 77.28 L 1.27 78.88 L 1.60 80.46 L 1.98 82.04 L 2.39 83.60 L 2.84 85.16 L 3.33 86.70 L 3.86 88.23 L 4.42 89.75 L 5.02 91.26 L 5.66 92.75 L 6.34 94.22 L 7.05 95.67 L 7.79 97.11 L 8.57 98.53 L 9.39 99.93 L 10.24 101.31 L 11.12 102.67 L 12.04 104.00 L 12.99 105.32 L 13.97 106.61 L 14.98 107.87 L 16.02 109.11 L 17.10 110.32 L 18.20 111.51 L 19.33 112.67 L 20.49 113.80 L 21.68 114.90 L 22.89 115.98 L 24.13 117.02 L 25.39 118.03 L 26.68 119.01 L 28.00 119.96 L 29.33 120.88 L 30.69 121.76 L 32.07 122.61 L 33.47 123.43 L 34.89 124.21 L 36.33 124.95 L 37.78 125.66 L 39.25 126.34 L 40.74 126.98 L 42.25 127.58 L 43.77 128.14 L 45.30 128.67 L 46.84 129.16 L 48.40 129.61 L 49.96 130.02 L 51.54 130.40 L 53.12 130.73 L 54.72 131.03 L 56.32 131.29 L 57.92 131.50 L 59.53 131.68 L 61.14 131.82 L 62.76 131.92 L 64.38 131.98 L 66.00 132.00 L 67.62 131.98 L 69.24 131.92 L 70.86 131.82 L 72.47 131.68 L 74.08 131.50 L 75.68 131.29 L 77.28 131.03 L 78.88 130.73 L 80.46 130.40 L 82.04 130.02 L 83.60 129.61 L 85.16 129.16 L 86.70 128.67 L 88.23 128.14 L 89.75 127.58 L 91.26 126.98 L 92.75 126.34 L 94.22 125.66 L 95.67 124.95 L 97.11 124.21 L 98.53 123.43 L 99.93 122.61 L 101.31 121.76 L 102.67 120.88 L 104.00 119.96 L 105.32 119.01 L 106.61 118.03 L 107.87 117.02 L 109.11 115.98 L 110.32 114.90 L 111.51 113.80 L 112.67 112.67 L 113.80 111.51 L 114.90 110.32 L 115.98 109.11 L 117.02 107.87 L 118.03 106.61 L 119.01 105.32 L 119.96 104.00 L 120.88 102.67 L 121.76 101.31 L 122.61 99.93 L 123.43 98.53 L 124.21 97.11 L 124.95 95.67 L 125.66 94.22 L 126.34 92.75 L 126.98 91.26 L 127.58 89.75 L 128.14 88.23 L 128.67 86.70 L 129.16 85.16 L 129.61 83.60 L 130.02 82.04 L 130.40 80.46 L 130.73 78.88 L 131.03 77.28 L 131.29 75.68 L 131.50 74.08 L 131.68 72.47 L 131.82 70.86 L 131.92 69.24 L 131.98 67.62 L 132.00 66.00 Z M 115.29 67.21 L 115.24 68.42 L 115.17 69.63 L 115.06 70.83 L 114.93 72.03 L 114.77 73.23 L 114.57 74.43 L 114.35 75.62 L 114.10 76.80 L 113.82 77.98 L 113.51 79.15 L 113.18 80.31 L 112.81 81.46 L 112.42 82.61 L 112.00 83.74 L 111.55 84.87 L 111.07 85.98 L 110.57 87.08 L 110.04 88.17 L 109.48 89.24 L 108.90 90.30 L 108.29 91.35 L 107.65 92.38 L 106.99 93.39 L 106.31 94.39 L 105.60 95.37 L 104.87 96.33 L 104.11 97.28 L 103.33 98.20 L 102.53 99.11 L 101.71 99.99 L 100.86 100.86 L 99.99 101.71 L 99.11 102.53 L 98.20 103.33 L 97.28 104.11 L 96.33 104.87 L 95.37 105.60 L 94.39 106.31 L 93.39 106.99 L 92.38 107.65 L 91.35 108.29 L 90.30 108.90 L 89.24 109.48 L 88.17 110.04 L 87.08 110.57 L 85.98 111.07 L 84.87 111.55 L 83.74 112.00 L 82.61 112.42 L 81.46 112.81 L 80.31 113.18 L 79.15 113.51 L 77.98 113.82 L 76.80 114.10 L 75.62 114.35 L 74.43 114.57 L 73.23 114.77 L 72.03 114.93 L 70.83 115.06 L 69.63 115.17 L 68.42 115.24 L 67.21 115.29 L 66.00 115.30 L 64.79 115.29 L 63.58 115.24 L 62.37 115.17 L 61.17 115.06 L 59.97 114.93 L 58.77 114.77 L 57.57 114.57 L 56.38 114.35 L 55.20 114.10 L 54.02 113.82 L 52.85 113.51 L 51.69 113.18 L 50.54 112.81 L 49.39 112.42 L 48.26 112.00 L 47.13 111.55 L 46.02 111.07 L 44.92 110.57 L 43.83 110.04 L 42.76 109.48 L 41.70 108.90 L 40.65 108.29 L 39.62 107.65 L 38.61 106.99 L 37.61 106.31 L 36.63 105.60 L 35.67 104.87 L 34.72 104.11 L 33.80 103.33 L 32.89 102.53 L 32.01 101.71 L 31.14 100.86 L 30.29 99.99 L 29.47 99.11 L 28.67 98.20 L 27.89 97.28 L 27.13 96.33 L 26.40 95.37 L 25.69 94.39 L 25.01 93.39 L 24.35 92.38 L 23.71 91.35 L 23.10 90.30 L 22.52 89.24 L 21.96 88.17 L 21.43 87.08 L 20.93 85.98 L 20.45 84.87 L 20.00 83.74 L 19.58 82.61 L 19.19 81.46 L 18.82 80.31 L 18.49 79.15 L 18.18 77.98 L 17.90 76.80 L 17.65 75.62 L 17.43 74.43 L 17.23 73.23 L 17.07 72.03 L 16.94 70.83 L 16.83 69.63 L 16.76 68.42 L 16.71 67.21 L 16.70 66.00 L 16.71 64.79 L 16.76 63.58 L 16.83 62.37 L 16.94 61.17 L 17.07 59.97 L 17.23 58.77 L 17.43 57.57 L 17.65 56.38 L 17.90 55.20 L 18.18 54.02 L 18.49 52.85 L 18.82 51.69 L 19.19 50.54 L 19.58 49.39 L 20.00 48.26 L 20.45 47.13 L 20.93 46.02 L 21.43 44.92 L 21.96 43.83 L 22.52 42.76 L 23.10 41.70 L 23.71 40.65 L 24.35 39.62 L 25.01 38.61 L 25.69 37.61 L 26.40 36.63 L 27.13 35.67 L 27.89 34.72 L 28.67 33.80 L 29.47 32.89 L 30.29 32.01 L 31.14 31.14 L 32.01 30.29 L 32.89 29.47 L 33.80 28.67 L 34.72 27.89 L 35.67 27.13 L 36.63 26.40 L 37.61 25.69 L 38.61 25.01 L 39.62 24.35 L 40.65 23.71 L 41.70 23.10 L 42.76 22.52 L 43.83 21.96 L 44.92 21.43 L 46.02 20.93 L 47.13 20.45 L 48.26 20.00 L 49.39 19.58 L 50.54 19.19 L 51.69 18.82 L 52.85 18.49 L 54.02 18.18 L 55.20 17.90 L 56.38 17.65 L 57.57 17.43 L 58.77 17.23 L 59.97 17.07 L 61.17 16.94 L 62.37 16.83 L 63.58 16.76 L 64.79 16.71 L 66.00 16.70 L 67.21 16.71 L 68.42 16.76 L 69.63 16.83 L 70.83 16.94 L 72.03 17.07 L 73.23 17.23 L 74.43 17.43 L 75.62 17.65 L 76.80 17.90 L 77.98 18.18 L 79.15 18.49 L 80.31 18.82 L 81.46 19.19 L 82.61 19.58 L 83.74 20.00 L 84.87 20.45 L 85.98 20.93 L 87.08 21.43 L 88.17 21.96 L 89.24 22.52 L 90.30 23.10 L 91.35 23.71 L 92.38 24.35 L 93.39 25.01 L 94.39 25.69 L 95.37 26.40 L 96.33 27.13 L 97.28 27.89 L 98.20 28.67 L 99.11 29.47 L 99.99 30.29 L 100.86 31.14 L 101.71 32.01 L 102.53 32.89 L 103.33 33.80 L 104.11 34.72 L 104.87 35.67 L 105.60 36.63 L 106.31 37.61 L 106.99 38.61 L 107.65 39.62 L 108.29 40.65 L 108.90 41.70 L 109.48 42.76 L 110.04 43.83 L 110.57 44.92 L 111.07 46.02 L 111.55 47.13 L 112.00 48.26 L 112.42 49.39 L 112.81 50.54 L 113.18 51.69 L 113.51 52.85 L 113.82 54.02 L 114.10 55.20 L 114.35 56.38 L 114.57 57.57 L 114.77 58.77 L 114.93 59.97 L 115.06 61.17 L 115.17 62.37 L 115.24 63.58 L 115.29 64.79 L 115.30 66.00 Z"/></g><g transform="translate(302.00,0)"><path d="M 92.00 16.70 L 92.00 0.00 L 16.70 0.00 L 0.00 0.00 L 0.00 16.70 L 0.00 57.65 L 0.00 74.35 L 0.00 132.00 L 16.70 132.00 L 16.70 74.35 L 71.76 74.35 L 71.76 57.65 L 16.70 57.65 L 16.70 16.70 Z"/></g><g transform="translate(414.00,0)"><path d="M 92.00 0.00 L 16.70 0.00 L 0.00 0.00 L 0.00 16.70 L 0.00 57.65 L 0.00 74.35 L 0.00 115.30 L 0.00 132.00 L 16.70 132.00 L 92.00 132.00 L 92.00 115.30 L 16.70 115.30 L 16.70 74.35 L 66.24 74.35 L 66.24 57.65 L 16.70 57.65 L 16.70 16.70 L 92.00 16.70 Z"/></g><g transform="translate(526.00,0)"><path d="M 0.00 0.00 L 0.00 132.00 L 16.70 132.00 L 16.70 27.24 L 90.73 136.68 L 97.65 132.00 L 106.00 132.00 L 106.00 0.00 L 89.30 0.00 L 89.30 104.76 L 15.27 -4.68 L 8.35 0.00 Z"/></g><g transform="translate(652.00,0)"><path d="M 131.98 64.38 L 131.92 62.76 L 131.82 61.14 L 131.68 59.53 L 131.50 57.92 L 131.29 56.32 L 131.03 54.72 L 130.73 53.12 L 130.40 51.54 L 130.02 49.96 L 129.61 48.40 L 129.16 46.84 L 128.67 45.30 L 128.14 43.77 L 127.58 42.25 L 126.98 40.74 L 126.34 39.25 L 125.66 37.78 L 124.95 36.33 L 124.21 34.89 L 123.43 33.47 L 122.61 32.07 L 121.76 30.69 L 120.88 29.33 L 119.96 28.00 L 119.01 26.68 L 118.03 25.39 L 117.02 24.13 L 115.98 22.89 L 114.90 21.68 L 113.80 20.49 L 112.67 19.33 L 111.51 18.20 L 110.32 17.10 L 109.11 16.02 L 107.87 14.98 L 106.61 13.97 L 105.32 12.99 L 104.00 12.04 L 102.67 11.12 L 101.31 10.24 L 99.93 9.39 L 98.53 8.57 L 97.11 7.79 L 95.67 7.05 L 94.22 6.34 L 92.75 5.66 L 91.26 5.02 L 89.75 4.42 L 88.23 3.86 L 86.70 3.33 L 85.16 2.84 L 83.60 2.39 L 82.04 1.98 L 80.46 1.60 L 78.88 1.27 L 77.28 0.97 L 75.68 0.71 L 74.08 0.50 L 72.47 0.32 L 70.86 0.18 L 69.24 0.08 L 67.62 0.02 L 66.00 0.00 L 64.38 0.02 L 62.76 0.08 L 61.14 0.18 L 59.53 0.32 L 57.92 0.50 L 56.32 0.71 L 54.72 0.97 L 53.12 1.27 L 51.54 1.60 L 49.96 1.98 L 48.40 2.39 L 46.84 2.84 L 45.30 3.33 L 43.77 3.86 L 42.25 4.42 L 40.74 5.02 L 39.25 5.66 L 37.78 6.34 L 36.33 7.05 L 34.89 7.79 L 33.47 8.57 L 32.07 9.39 L 30.69 10.24 L 29.33 11.12 L 28.00 12.04 L 26.68 12.99 L 25.39 13.97 L 24.13 14.98 L 22.89 16.02 L 21.68 17.10 L 20.49 18.20 L 19.33 19.33 L 18.20 20.49 L 17.10 21.68 L 16.02 22.89 L 14.98 24.13 L 13.97 25.39 L 12.99 26.68 L 12.04 28.00 L 11.12 29.33 L 10.24 30.69 L 9.39 32.07 L 8.57 33.47 L 7.79 34.89 L 7.05 36.33 L 6.34 37.78 L 5.66 39.25 L 5.02 40.74 L 4.42 42.25 L 3.86 43.77 L 3.33 45.30 L 2.84 46.84 L 2.39 48.40 L 1.98 49.96 L 1.60 51.54 L 1.27 53.12 L 0.97 54.72 L 0.71 56.32 L 0.50 57.92 L 0.32 59.53 L 0.18 61.14 L 0.08 62.76 L 0.02 64.38 L 0.00 66.00 L 0.02 67.62 L 0.08 69.24 L 0.18 70.86 L 0.32 72.47 L 0.50 74.08 L 0.71 75.68 L 0.97 77.28 L 1.27 78.88 L 1.60 80.46 L 1.98 82.04 L 2.39 83.60 L 2.84 85.16 L 3.33 86.70 L 3.86 88.23 L 4.42 89.75 L 5.02 91.26 L 5.66 92.75 L 6.34 94.22 L 7.05 95.67 L 7.79 97.11 L 8.57 98.53 L 9.39 99.93 L 10.24 101.31 L 11.12 102.67 L 12.04 104.00 L 12.99 105.32 L 13.97 106.61 L 14.98 107.87 L 16.02 109.11 L 17.10 110.32 L 18.20 111.51 L 19.33 112.67 L 20.49 113.80 L 21.68 114.90 L 22.89 115.98 L 24.13 117.02 L 25.39 118.03 L 26.68 119.01 L 28.00 119.96 L 29.33 120.88 L 30.69 121.76 L 32.07 122.61 L 33.47 123.43 L 34.89 124.21 L 36.33 124.95 L 37.78 125.66 L 39.25 126.34 L 40.74 126.98 L 42.25 127.58 L 43.77 128.14 L 45.30 128.67 L 46.84 129.16 L 48.40 129.61 L 49.96 130.02 L 51.54 130.40 L 53.12 130.73 L 54.72 131.03 L 56.32 131.29 L 57.92 131.50 L 59.53 131.68 L 61.14 131.82 L 62.76 131.92 L 64.38 131.98 L 66.00 132.00 L 67.62 131.98 L 69.24 131.92 L 70.86 131.82 L 72.47 131.68 L 74.08 131.50 L 75.68 131.29 L 77.28 131.03 L 78.88 130.73 L 80.46 130.40 L 82.04 130.02 L 83.60 129.61 L 85.16 129.16 L 86.70 128.67 L 88.23 128.14 L 89.75 127.58 L 91.26 126.98 L 92.75 126.34 L 94.22 125.66 L 95.67 124.95 L 97.11 124.21 L 98.53 123.43 L 99.93 122.61 L 101.31 121.76 L 102.67 120.88 L 104.00 119.96 L 105.32 119.01 L 106.61 118.03 L 107.87 117.02 L 109.11 115.98 L 110.32 114.90 L 111.51 113.80 L 112.67 112.67 L 113.80 111.51 L 114.90 110.32 L 115.98 109.11 L 117.02 107.87 L 118.03 106.61 L 119.01 105.32 L 119.96 104.00 L 120.88 102.67 L 121.76 101.31 L 122.61 99.93 L 123.43 98.53 L 124.21 97.11 L 124.95 95.67 L 125.66 94.22 L 126.34 92.75 L 126.98 91.26 L 127.58 89.75 L 128.14 88.23 L 128.67 86.70 L 129.16 85.16 L 129.61 83.60 L 130.02 82.04 L 130.40 80.46 L 130.73 78.88 L 131.03 77.28 L 131.29 75.68 L 131.50 74.08 L 131.68 72.47 L 131.82 70.86 L 131.92 69.24 L 131.98 67.62 L 132.00 66.00 Z M 115.29 67.21 L 115.24 68.42 L 115.17 69.63 L 115.06 70.83 L 114.93 72.03 L 114.77 73.23 L 114.57 74.43 L 114.35 75.62 L 114.10 76.80 L 113.82 77.98 L 113.51 79.15 L 113.18 80.31 L 112.81 81.46 L 112.42 82.61 L 112.00 83.74 L 111.55 84.87 L 111.07 85.98 L 110.57 87.08 L 110.04 88.17 L 109.48 89.24 L 108.90 90.30 L 108.29 91.35 L 107.65 92.38 L 106.99 93.39 L 106.31 94.39 L 105.60 95.37 L 104.87 96.33 L 104.11 97.28 L 103.33 98.20 L 102.53 99.11 L 101.71 99.99 L 100.86 100.86 L 99.99 101.71 L 99.11 102.53 L 98.20 103.33 L 97.28 104.11 L 96.33 104.87 L 95.37 105.60 L 94.39 106.31 L 93.39 106.99 L 92.38 107.65 L 91.35 108.29 L 90.30 108.90 L 89.24 109.48 L 88.17 110.04 L 87.08 110.57 L 85.98 111.07 L 84.87 111.55 L 83.74 112.00 L 82.61 112.42 L 81.46 112.81 L 80.31 113.18 L 79.15 113.51 L 77.98 113.82 L 76.80 114.10 L 75.62 114.35 L 74.43 114.57 L 73.23 114.77 L 72.03 114.93 L 70.83 115.06 L 69.63 115.17 L 68.42 115.24 L 67.21 115.29 L 66.00 115.30 L 64.79 115.29 L 63.58 115.24 L 62.37 115.17 L 61.17 115.06 L 59.97 114.93 L 58.77 114.77 L 57.57 114.57 L 56.38 114.35 L 55.20 114.10 L 54.02 113.82 L 52.85 113.51 L 51.69 113.18 L 50.54 112.81 L 49.39 112.42 L 48.26 112.00 L 47.13 111.55 L 46.02 111.07 L 44.92 110.57 L 43.83 110.04 L 42.76 109.48 L 41.70 108.90 L 40.65 108.29 L 39.62 107.65 L 38.61 106.99 L 37.61 106.31 L 36.63 105.60 L 35.67 104.87 L 34.72 104.11 L 33.80 103.33 L 32.89 102.53 L 32.01 101.71 L 31.14 100.86 L 30.29 99.99 L 29.47 99.11 L 28.67 98.20 L 27.89 97.28 L 27.13 96.33 L 26.40 95.37 L 25.69 94.39 L 25.01 93.39 L 24.35 92.38 L 23.71 91.35 L 23.10 90.30 L 22.52 89.24 L 21.96 88.17 L 21.43 87.08 L 20.93 85.98 L 20.45 84.87 L 20.00 83.74 L 19.58 82.61 L 19.19 81.46 L 18.82 80.31 L 18.49 79.15 L 18.18 77.98 L 17.90 76.80 L 17.65 75.62 L 17.43 74.43 L 17.23 73.23 L 17.07 72.03 L 16.94 70.83 L 16.83 69.63 L 16.76 68.42 L 16.71 67.21 L 16.70 66.00 L 16.71 64.79 L 16.76 63.58 L 16.83 62.37 L 16.94 61.17 L 17.07 59.97 L 17.23 58.77 L 17.43 57.57 L 17.65 56.38 L 17.90 55.20 L 18.18 54.02 L 18.49 52.85 L 18.82 51.69 L 19.19 50.54 L 19.58 49.39 L 20.00 48.26 L 20.45 47.13 L 20.93 46.02 L 21.43 44.92 L 21.96 43.83 L 22.52 42.76 L 23.10 41.70 L 23.71 40.65 L 24.35 39.62 L 25.01 38.61 L 25.69 37.61 L 26.40 36.63 L 27.13 35.67 L 27.89 34.72 L 28.67 33.80 L 29.47 32.89 L 30.29 32.01 L 31.14 31.14 L 32.01 30.29 L 32.89 29.47 L 33.80 28.67 L 34.72 27.89 L 35.67 27.13 L 36.63 26.40 L 37.61 25.69 L 38.61 25.01 L 39.62 24.35 L 40.65 23.71 L 41.70 23.10 L 42.76 22.52 L 43.83 21.96 L 44.92 21.43 L 46.02 20.93 L 47.13 20.45 L 48.26 20.00 L 49.39 19.58 L 50.54 19.19 L 51.69 18.82 L 52.85 18.49 L 54.02 18.18 L 55.20 17.90 L 56.38 17.65 L 57.57 17.43 L 58.77 17.23 L 59.97 17.07 L 61.17 16.94 L 62.37 16.83 L 63.58 16.76 L 64.79 16.71 L 66.00 16.70 L 67.21 16.71 L 68.42 16.76 L 69.63 16.83 L 70.83 16.94 L 72.03 17.07 L 73.23 17.23 L 74.43 17.43 L 75.62 17.65 L 76.80 17.90 L 77.98 18.18 L 79.15 18.49 L 80.31 18.82 L 81.46 19.19 L 82.61 19.58 L 83.74 20.00 L 84.87 20.45 L 85.98 20.93 L 87.08 21.43 L 88.17 21.96 L 89.24 22.52 L 90.30 23.10 L 91.35 23.71 L 92.38 24.35 L 93.39 25.01 L 94.39 25.69 L 95.37 26.40 L 96.33 27.13 L 97.28 27.89 L 98.20 28.67 L 99.11 29.47 L 99.99 30.29 L 100.86 31.14 L 101.71 32.01 L 102.53 32.89 L 103.33 33.80 L 104.11 34.72 L 104.87 35.67 L 105.60 36.63 L 106.31 37.61 L 106.99 38.61 L 107.65 39.62 L 108.29 40.65 L 108.90 41.70 L 109.48 42.76 L 110.04 43.83 L 110.57 44.92 L 111.07 46.02 L 111.55 47.13 L 112.00 48.26 L 112.42 49.39 L 112.81 50.54 L 113.18 51.69 L 113.51 52.85 L 113.82 54.02 L 114.10 55.20 L 114.35 56.38 L 114.57 57.57 L 114.77 58.77 L 114.93 59.97 L 115.06 61.17 L 115.17 62.37 L 115.24 63.58 L 115.29 64.79 L 115.30 66.00 Z"/></g>
  </g>
</svg>